<svg width="1569" height="431" viewBox="0 0 1569 431" fill="none" xmlns="http://www.w3.org/2000/svg">
<path fill-rule="evenodd" clip-rule="evenodd" d="M439 154V320L478.6 345L478.6 289.9C478.6 278.7 481.1 270.5 486.1 265.3C491.1 259.9 497.6 257.2 505.6 257.2C513.2 257.2 518.9 259.8 522.7 265C526.5 270 528.4 277.4 528.4 287.2V358H568V282.4C568 264.2 563.6 250 554.8 239.8C546 229.4 534.2 224.2 519.4 224.2C510.6 224.2 502.7 226.3 495.7 230.5C488.7 234.7 483 240.8 478.6 248.8V154H439ZM587.275 263.8C584.075 272.4 582.475 282.2 582.475 293.2C582.475 304.4 584.075 314.3 587.275 322.9C590.475 331.5 594.675 338.8 599.875 344.8C605.275 350.6 611.475 355 618.475 358C625.475 361 632.675 362.5 640.075 362.5C648.675 362.5 656.875 360.6 664.675 356.8C672.475 352.8 678.875 346.8 683.875 338.8V358H723.475V228.7H683.875V247.9C678.875 239.9 672.475 234 664.675 230.2C656.875 226.2 648.675 224.2 640.075 224.2C632.675 224.2 625.475 225.7 618.475 228.7C611.475 231.7 605.275 236.2 599.875 242.2C594.675 248 590.475 255.2 587.275 263.8ZM630.175 267.7C635.575 260.7 643.175 257.2 652.975 257.2C662.175 257.2 669.675 260.4 675.475 266.8C681.475 273 684.475 281.8 684.475 293.2C684.475 304.6 681.475 313.5 675.475 319.9C669.675 326.3 662.175 329.5 652.975 329.5C643.175 329.5 635.575 326 630.175 319C624.775 312 622.075 303.4 622.075 293.2C622.075 283 624.775 274.5 630.175 267.7ZM787.581 321.4C781.981 315 779.181 305.6 779.181 293.2C779.181 281 781.981 271.8 787.581 265.6C793.181 259.2 799.981 256 807.981 256C814.181 256 819.581 257.9 824.181 261.7C828.981 265.5 832.081 271.3 833.481 279.1H874.281C872.681 269.3 869.681 260.9 865.281 253.9C860.881 246.9 855.681 241.2 849.681 236.8C843.681 232.4 837.081 229.2 829.881 227.2C822.681 225.2 815.481 224.2 808.281 224.2C799.481 224.2 790.881 225.7 782.481 228.7C774.081 231.5 766.681 235.8 760.281 241.6C754.081 247.4 749.081 254.6 745.281 263.2C741.481 271.8 739.581 281.8 739.581 293.2C739.581 304.6 741.481 314.7 745.281 323.5C749.081 332.1 754.081 339.3 760.281 345.1C766.681 350.9 774.081 355.2 782.481 358C790.881 361 799.481 362.5 808.281 362.5C815.481 362.5 822.681 361.5 829.881 359.5C837.081 357.5 843.681 354.4 849.681 350.2C855.681 345.8 860.781 340.1 864.981 333.1C869.381 326.1 872.381 317.7 873.981 307.9H833.481C832.081 315.5 828.981 321.2 824.181 325C819.581 328.8 814.181 330.7 807.981 330.7C799.981 330.7 793.181 327.6 787.581 321.4ZM927.967 154H888.367V358H927.967V301L975.067 358H1024.27L965.467 289.9L1020.07 228.7H975.367L927.967 280.3V154ZM1118.88 321.4C1113.28 315 1110.48 305.6 1110.48 293.2C1110.48 281 1113.28 271.8 1118.88 265.6C1124.48 259.2 1131.28 256 1139.28 256C1145.48 256 1150.88 257.9 1155.48 261.7C1160.28 265.5 1163.38 271.3 1164.78 279.1H1205.58C1203.98 269.3 1200.98 260.9 1196.58 253.9C1192.18 246.9 1186.98 241.2 1180.98 236.8C1174.98 232.4 1168.38 229.2 1161.18 227.2C1153.98 225.2 1146.78 224.2 1139.58 224.2C1130.78 224.2 1122.18 225.7 1113.78 228.7C1105.38 231.5 1097.98 235.8 1091.58 241.6C1085.38 247.4 1080.38 254.6 1076.58 263.2C1072.78 271.8 1070.88 281.8 1070.88 293.2C1070.88 304.6 1072.78 314.7 1076.58 323.5C1080.38 332.1 1085.38 339.3 1091.58 345.1C1097.98 350.9 1105.38 355.2 1113.78 358C1122.18 361 1130.78 362.5 1139.58 362.5C1146.78 362.5 1153.98 361.5 1161.18 359.5C1168.38 357.5 1174.98 354.4 1180.98 350.2C1186.98 345.8 1192.08 340.1 1196.28 333.1C1200.68 326.1 1203.68 317.7 1205.28 307.9H1164.78C1163.38 315.5 1160.28 321.2 1155.48 325C1150.88 328.8 1145.48 330.7 1139.28 330.7C1131.28 330.7 1124.48 327.6 1118.88 321.4ZM1259.27 154H1219.67V358H1259.27V154ZM1320.24 300.4V228.7H1280.64V311.2C1280.64 327.6 1284.84 340.3 1293.24 349.3C1301.64 358.1 1312.54 362.5 1325.94 362.5C1333.74 362.5 1341.04 360.5 1347.84 356.5C1354.84 352.5 1360.54 346.5 1364.94 338.5V358H1404.54V228.7H1364.94V292.9C1364.94 304.9 1362.64 313.9 1358.04 319.9C1353.64 325.7 1348.04 328.6 1341.24 328.6C1334.44 328.6 1329.24 326.2 1325.64 321.4C1322.04 316.6 1320.24 309.6 1320.24 300.4ZM1564.04 322.9C1567.24 314.3 1568.84 304.4 1568.84 293.2C1568.84 282.2 1567.24 272.4 1564.04 263.8C1560.84 255.2 1556.54 248 1551.14 242.2C1545.94 236.2 1539.84 231.7 1532.84 228.7C1526.04 225.7 1518.94 224.2 1511.54 224.2C1502.74 224.2 1494.44 226.2 1486.64 230.2C1478.84 234 1472.44 239.9 1467.44 247.9V154H1427.84V358H1467.44V338.8C1472.44 346.8 1478.84 352.8 1486.64 356.8C1494.44 360.6 1502.74 362.5 1511.54 362.5C1518.94 362.5 1526.04 361 1532.84 358C1539.84 355 1545.94 350.6 1551.14 344.8C1556.54 338.8 1560.84 331.5 1564.04 322.9ZM1475.54 266.8C1481.54 260.4 1489.14 257.2 1498.34 257.2C1507.94 257.2 1515.44 260.7 1520.84 267.7C1526.24 274.5 1528.94 283 1528.94 293.2C1528.94 303.4 1526.24 312 1520.84 319C1515.44 326 1507.94 329.5 1498.34 329.5C1489.14 329.5 1481.54 326.3 1475.54 319.9C1469.74 313.5 1466.84 304.6 1466.84 293.2C1466.84 282 1469.74 273.2 1475.54 266.8Z" fill="#EC3750"/>
<path fill-rule="evenodd" clip-rule="evenodd" d="M550.199 419.183C274.096 373.705 -76.632 128.803 194.961 131.512C-348.39 84.5863 400.707 419.183 550.199 419.183ZM604.141 419.183C376.011 380.311 89.8733 171.331 314.276 173.646C-134.667 133.537 480.623 419.183 604.141 419.183ZM655 419.183C468.136 386.084 233.757 208.141 417.568 210.112C49.8332 175.959 553.825 419.183 655 419.183ZM0.772955 180.897L4.1664 189.083C2.79332 186.341 1.65813 183.612 0.772955 180.897ZM4.1664 189.083L70.8964 350.043C154.161 470.091 576 419.5 534 423.5C493.026 427.402 58.9885 298.538 4.1664 189.083Z" fill="#D9D9D9"/>
<path d="M227.2 139V13H272.6C288.467 13 300.267 16.8667 308 24.6C315.867 32.3333 319.8 42.2667 319.8 54.4C319.8 66.4 315.8 76.3333 307.8 84.2C299.8 91.9333 288.267 95.8 273.2 95.8H253.6V139H227.2ZM273.2 35H253.6V73.8H273C279.533 73.8 284.467 72 287.8 68.4C291.267 64.8 293 60.1333 293 54.4C293 48.2667 291.133 43.5333 287.4 40.2C283.667 36.7333 278.933 35 273.2 35ZM327.473 95.8C327.473 88.4667 328.54 81.9333 330.673 76.2C332.807 70.4667 335.607 65.6667 339.073 61.8C342.673 57.8 346.807 54.8 351.473 52.8C356.14 50.8 360.94 49.8 365.873 49.8C371.607 49.8 377.073 51.1333 382.273 53.8C387.473 56.3333 391.74 60.2667 395.073 65.6V52.8H421.473V139H395.073V126.2C391.74 131.533 387.473 135.533 382.273 138.2C377.073 140.733 371.607 142 365.873 142C360.94 142 356.14 141 351.473 139C346.807 137 342.673 134.067 339.073 130.2C335.607 126.2 332.807 121.333 330.673 115.6C328.54 109.867 327.473 103.267 327.473 95.8ZM374.473 71.8C367.94 71.8 362.873 74.1333 359.273 78.8C355.673 83.3333 353.873 89 353.873 95.8C353.873 102.6 355.673 108.333 359.273 113C362.873 117.667 367.94 120 374.473 120C380.607 120 385.607 117.867 389.473 113.6C393.473 109.333 395.473 103.4 395.473 95.8C395.473 88.2 393.473 82.3333 389.473 78.2C385.607 73.9333 380.607 71.8 374.473 71.8ZM443.011 139V52.8H469.411V70.4C472.344 63.6 476.411 58.4667 481.611 55C486.944 51.5333 492.878 49.8 499.411 49.8C500.878 49.8 502.278 49.9333 503.611 50.2C504.944 50.3333 506.078 50.4667 507.011 50.6V77.2C504.611 76.8 502.278 76.4667 500.011 76.2C497.878 75.9333 495.544 75.8 493.011 75.8C484.078 75.8 477.878 77.8 474.411 81.8C471.078 85.8 469.411 91.8 469.411 99.8V139H443.011ZM520.159 139V3H546.559V139H520.159ZM581.406 41.4C576.74 41.4 572.673 39.7333 569.206 36.4C565.873 32.9333 564.206 28.8667 564.206 24.2C564.206 19.4 565.873 15.3333 569.206 12C572.673 8.66666 576.74 6.99999 581.406 6.99999C586.073 6.99999 590.073 8.66666 593.406 12C596.873 15.3333 598.606 19.4 598.606 24.2C598.606 28.8667 596.873 32.9333 593.406 36.4C590.073 39.7333 586.073 41.4 581.406 41.4ZM568.206 139V52.8H594.606V139H568.206ZM611.653 95.8C611.653 88.4667 612.72 81.9333 614.853 76.2C616.986 70.4667 619.786 65.6667 623.253 61.8C626.853 57.8 630.986 54.8 635.653 52.8C640.32 50.8 645.12 49.8 650.053 49.8C655.786 49.8 661.253 51.1333 666.453 53.8C671.653 56.3333 675.92 60.2667 679.253 65.6V52.8H705.653V139H679.253V126.2C675.92 131.533 671.653 135.533 666.453 138.2C661.253 140.733 655.786 142 650.053 142C645.12 142 640.32 141 635.653 139C630.986 137 626.853 134.067 623.253 130.2C619.786 126.2 616.986 121.333 614.853 115.6C612.72 109.867 611.653 103.267 611.653 95.8ZM658.653 71.8C652.12 71.8 647.053 74.1333 643.453 78.8C639.853 83.3333 638.053 89 638.053 95.8C638.053 102.6 639.853 108.333 643.453 113C647.053 117.667 652.12 120 658.653 120C664.786 120 669.786 117.867 673.653 113.6C677.653 109.333 679.653 103.4 679.653 95.8C679.653 88.2 677.653 82.3333 673.653 78.2C669.786 73.9333 664.786 71.8 658.653 71.8ZM727.191 139V52.8H753.591V65.4C756.524 60.2 760.257 56.3333 764.791 53.8C769.324 51.1333 774.257 49.8 779.591 49.8C786.257 49.8 792.057 51.4667 796.991 54.8C802.057 58.1333 805.857 62.8667 808.391 69C810.924 62.8667 814.791 58.1333 819.991 54.8C825.191 51.4667 831.124 49.8 837.791 49.8C847.391 49.8 855.124 53.2 860.991 60C866.991 66.6667 869.991 76.2 869.991 88.6V139H843.791V91.8C843.791 85.2667 842.457 80.3333 839.791 77C837.257 73.5333 833.524 71.8 828.591 71.8C823.657 71.8 819.591 73.5333 816.391 77C813.324 80.3333 811.791 86.1333 811.791 94.4V139H785.391V91.8C785.391 85.2667 784.124 80.3333 781.591 77C779.057 73.5333 775.324 71.8 770.391 71.8C765.457 71.8 761.391 73.5333 758.191 77C755.124 80.3333 753.591 86.1333 753.591 94.4V139H727.191ZM931.277 142C924.477 142 918.21 140.867 912.477 138.6C906.877 136.333 902.01 133.2 897.877 129.2C893.877 125.067 890.743 120.133 888.477 114.4C886.343 108.667 885.277 102.467 885.277 95.8C885.277 89.1333 886.41 83 888.677 77.4C890.943 71.6667 894.077 66.8 898.077 62.8C902.21 58.6667 907.077 55.4667 912.677 53.2C918.277 50.9333 924.41 49.8 931.077 49.8C944.81 49.8 955.677 53.8667 963.677 62C971.677 70.1333 975.677 80.6 975.677 93.4C975.677 95 975.61 96.5333 975.477 98C975.477 99.3333 975.41 100.733 975.277 102.2H911.477C912.41 109 914.61 114 918.077 117.2C921.543 120.267 925.943 121.8 931.277 121.8C936.077 121.8 939.877 120.8 942.677 118.8C945.477 116.8 947.343 114.2 948.277 111H974.477C972.343 121 967.21 128.667 959.077 134C951.077 139.333 941.81 142 931.277 142ZM930.877 70.2C925.677 70.2 921.343 71.4667 917.877 74C914.543 76.5333 912.41 80.6 911.477 86.2H949.677C949.143 80.8667 947.21 76.8667 943.877 74.2C940.543 71.5333 936.21 70.2 930.877 70.2ZM992.23 139V52.8H1018.63V66.2C1021.56 60.8667 1025.36 56.8 1030.03 54C1034.7 51.2 1039.96 49.8 1045.83 49.8C1055.7 49.8 1063.56 53.2667 1069.43 60.2C1075.3 67 1078.23 76.4667 1078.23 88.6V139H1051.83V91.8C1051.83 85.2667 1050.56 80.3333 1048.03 77C1045.5 73.5333 1041.7 71.8 1036.63 71.8C1031.3 71.8 1026.96 73.6 1023.63 77.2C1020.3 80.6667 1018.63 86.1333 1018.63 93.6V139H992.23ZM1088.88 73.8V52.8H1108.68V18.8H1134.88V52.8H1161.88V73.8H1134.88V105.6C1134.88 110.533 1135.95 113.933 1138.08 115.8C1140.35 117.667 1143.75 118.6 1148.28 118.6C1150.55 118.6 1152.81 118.4 1155.08 118C1157.48 117.6 1159.75 117.267 1161.88 117V140.2C1158.95 140.733 1155.88 141.133 1152.68 141.4C1149.48 141.8 1146.41 142 1143.48 142C1131.88 142 1123.15 139.333 1117.28 134C1111.55 128.667 1108.68 119.933 1108.68 107.8V73.8H1088.88ZM1293.02 142C1286.49 142 1280.35 140.867 1274.62 138.6C1268.89 136.333 1263.89 133.2 1259.62 129.2C1255.49 125.2 1252.15 120.333 1249.62 114.6C1247.22 108.867 1246.02 102.6 1246.02 95.8C1246.02 89 1247.29 82.8 1249.82 77.2C1252.35 71.4667 1255.69 66.6 1259.82 62.6C1264.09 58.6 1269.09 55.4667 1274.82 53.2C1280.55 50.9333 1286.62 49.8 1293.02 49.8C1299.42 49.8 1305.49 50.9333 1311.22 53.2C1316.95 55.4667 1321.95 58.6 1326.22 62.6C1330.49 66.6 1333.89 71.4667 1336.42 77.2C1338.95 82.8 1340.22 89 1340.22 95.8C1340.22 102.6 1338.95 108.867 1336.42 114.6C1334.02 120.333 1330.69 125.2 1326.42 129.2C1322.15 133.2 1317.15 136.333 1311.42 138.6C1305.69 140.867 1299.55 142 1293.02 142ZM1293.02 119.4C1299.42 119.4 1304.42 117.267 1308.02 113C1311.75 108.733 1313.62 103 1313.62 95.8C1313.62 88.7333 1311.75 83.0667 1308.02 78.8C1304.29 74.5333 1299.29 72.4 1293.02 72.4C1286.89 72.4 1281.89 74.5333 1278.02 78.8C1274.29 83.0667 1272.42 88.7333 1272.42 95.8C1272.42 103 1274.22 108.733 1277.82 113C1281.55 117.267 1286.62 119.4 1293.02 119.4ZM1349.88 73.8V52.8H1369.88V38.8C1369.88 26.4 1373.22 16.8667 1379.88 10.2C1386.55 3.39999 1396.15 -1.04904e-05 1408.68 -1.04904e-05C1411.75 -1.04904e-05 1414.55 0.266657 1417.08 0.799991C1419.62 1.19999 1421.75 1.66666 1423.48 2.2V24.4C1421.35 23.8667 1419.08 23.4667 1416.68 23.2C1414.42 22.9333 1412.42 22.8 1410.68 22.8C1405.35 22.8 1401.55 24.1333 1399.28 26.8C1397.15 29.4667 1396.08 33.9333 1396.08 40.2V52.8H1422.48V73.8H1396.08V139H1369.88V73.8H1349.88Z" fill="#8492A6"/>
</svg>
